<svg shape-rendering="geometricPrecision" style="isolation:isolate" viewBox="0 0 344 308" xmlns="http://www.w3.org/2000/svg"><defs><clipPath id="a"><path d="M0 0h344v308H0z"/></clipPath></defs><g clip-path="url(#a)"><path d="M342.98 165.08c-.297-2.967-.892-6.33-1.783-9.989a3.363 3.363 0 0 0-3.666-2.572 2070.862 2070.862 0 0 1-13.376-30.857c.198-.197.495-.494.595-.692.495-.791.693-1.879.396-2.769-1.09-3.758-2.081-7.319-2.972-10.879-.397-1.484-1.685-2.473-3.171-2.572-4.558-.198-11.097-.296-19.915-.296-.495 0-.991.098-1.486.395-.396.198-.892.495-1.189.692-.396.198-1.585 1.088-1.783 1.187-.496-1.384-1.784-2.373-3.27-2.373-3.369.099-7.926.197-12.979.494a96.856 96.856 0 0 0-5.152-3.659c-11.989-8.011-25.265-13.945-39.037-17.703-8.323-2.275-16.844-3.66-25.463-4.253-2.775-.198-5.45-.297-8.224-.297-10.7 0-21.104 1.385-31.111 3.956-.099 0-.198.099-.396.099-2.477-5.044-5.846-11.176-9.313-17.011 7.232-5.934 13.177-14.044 15.555-22.945 2.081-8.011.297-16.022-5.053-19.978-.892-2.769-2.279-5.341-4.26-7.418-5.351-5.637-12.682-6.329-19.618-4.252-.099-.693-.198-1.385-.495-2.077-2.675-6.429-9.215-7.912-15.655-5.835-2.477.593-4.954.296-7.431-.989-.594-.297-1.288-.495-1.882-.693-1.684-.791-3.369-.989-4.954-.593-4.459.494-8.025 4.055-10.106 10.78-3.071 9.989-19.122 12.066-27.742 15.824C66.848 31.959 65.263 40.563 66.65 46.3c.297 1.384.793 2.67 1.486 3.857-7.034-.791-12.979 2.077-18.032 8.505-6.837 8.605-6.44 18.989-.496 29.077 14.367 22.352 32.399 25.715 54.196 16.715.397.296.694.593 1.09.89 1.09 1.285 2.18 2.472 2.973 3.56 1.387 1.78 3.666 4.648 5.251 6.824-3.072 3.264-5.945 6.726-8.521 10.385-.099.198-.198.297-.297.494a500.593 500.593 0 0 0-39.433 8.11h-.1c-19.023-5.835-33.092 19.682-47.854 19.385-7.233 0-21.401-13.55-13.673 3.363 5.152 11.373 13.573 23.34 27.246 23.34 12.187 0 24.175-12.857 28.634-8.11 0 .594 0 1.187.099 1.781.099 1.483.793 2.769 1.883 3.56.297 6.725-8.521 11.077-18.924 9.494-10.998-1.681-14.763 6.132-17.934 12.066-1.387 2.671 1.189 5.539 3.963 4.451 6.54-2.67 13.574-4.352 20.609-2.473 7.233 1.978 10.799 8.506 18.329 9.495.099 1.681.198 3.264.298 4.846-5.45.396-3.072 5.539-9.611 5.44-1.982 0-7.53-2.077-9.313-2.275-3.072-.198-3.171 2.077-.793 4.846 5.152 6.033 11.295 5.044 17.339 8.209-7.53 4.549-18.132 2.275-26.355 5.934-7.728 3.461-12.88 9.89-14.565 17.901-.594 2.769 2.576 4.945 4.954 3.363 2.576-1.781 5.152-5.242 8.719-5.836 8.818-1.483 15.06 4.847 23.284 6.132.594.099 1.089.099 1.585.099.099 1.78.198 3.462.297 5.242.099 1.286.694 2.473 1.783 3.264.793.593 1.784.989 2.775.989.297 0 .594 0 .792-.099 12.484-2.275 23.977-4.945 34.579-8.011.099 0 .297-.099.396-.099.198-.099.495-.099.694-.198.099 0 .099-.099.198-.099 3.765-.989 4.755-3.165 4.755-4.549 8.521 11.373 19.816 21.264 32.003 29.373 20.707 13.748 43.297 20.869 67.869 21.462h3.368c38.74 0 73.913-15.824 95.215-45.495 17.041-23.736 24.175-52.615 18.924-81.791-.198-1.285-.496-2.67-.793-3.956 2.576-.494 5.45-.989 8.521-1.582l.793-.099c.198 0 .396-.099.594-.198l6.836-6.527c.496-.396.793-1.286.694-2.275z" fill="#0d0802"/><radialGradient id="b" cx=".5" cy=".5" r="1" fx=".5" fy=".5" gradientTransform="matrix(83.606 0 0 76.311 171.43 140.07)" gradientUnits="userSpaceOnUse"><stop stop-color="#fdea18" offset=".285"/><stop stop-color="#fde616" offset=".462"/><stop stop-color="#fcdb10" offset=".63"/><stop stop-color="#fbc806" offset=".793"/><stop stop-color="#fabd00" offset=".864"/><stop stop-color="#f39708" offset="1"/></radialGradient><path d="M249.9 111.39c-33.286-16.326-73.348-11.15-98.363 12.344-16.244 15.529-24.615 37.728-21.127 61.321 2.99 20.308 15.945 38.226 30.695 50.769 1.893 1.394 3.787 2.787 5.78 4.082 38.667 24.787 90.589 17.321 116-16.724 9.567-12.842 14.051-27.575 13.752-42.408.1 0 .1 0 .2-.099-.897-29.665-19.733-55.846-46.939-69.285z" fill="url(#b)" fill-rule="evenodd"/><path d="M173.07 194.62c0 1.195.199 2.887.398 5.077 0 .199.1.399.1.598.199 0 .398.199.598.199.299-.299.398-.598.797-.797 0-.099.1-.497.1-.995v-.697c-.2-2.787-.499-5.376-.698-7.964-1.096 2.091-1.196 2.887-1.295 4.579zM244.82 170.33c.698-.199 1.595-.498 2.691-.797v-.099c-1.196-6.869-1.893-10.453-2.89-15.53.1 5.376.1 10.851.199 16.426z" fill="#f3cb0e"/><g fill="#ec6d1d"><path d="M170.68 119.76c.299-.1.498-.1.797-.1 2.093-.099 4.086-.199 5.979-.299 9.667-5.375 27.307-7.167 32.09-7.466 6.179-.298 8.77 1.095 9.667 3.485.498 0 .897.099 1.395.398.499-.498 1.196-.896 1.894-.996.697-.099 1.495-.199 2.192-.398-.099-.995-.299-1.991-.797-2.887-3.588-6.172-13.055-5.873-19.134-5.276-6.777.597-31.592 5.177-38.468 14.634.299.199.598.497.797.896.1 0 .299-.1.399-.1.099-.099.199-.199.398-.199.798-.896 1.694-1.394 2.791-1.692zM247.71 227.86c2.492 1.593 5.581 1.294 6.777-.697 1.296-1.991.299-4.877-2.192-6.47-2.492-1.593-5.581-1.294-6.777.697s-.299 4.877 2.192 6.47zM142.77 193.32c-.597-4.678-1.096-9.457-1.694-14.335v-.298c-.199-2.29-.498-4.579-.697-6.869 0-.199 0-.398-.1-.697-.299-2.489-.498-4.977-.698-7.565-2.989 11.846-4.584 26.28 3.189 29.764zM231.87 111c-1.396.598-2.292 1.494-3.09 2.589A294.367 294.367 0 0 0 241.337 111c-3.388-.995-6.677-1.194-9.467 0zM188.61 225.48c-.299 1.892.1 3.584 1.196 4.778 2.491 2.489 7.474 1.394 11.261-2.389 3.688-3.683 4.784-8.66 2.392-11.149-1.196.796-2.392 1.493-4.983 2.986-2.591 1.593-6.179 3.684-9.866 5.774z"/><path d="M209.34 213.23c-.1 0-.1 0-.199.099-1.894 10.154-5.282 24.489-9.866 26.281-4.983 1.891-13.853-1.792-22.025-8.362-.996 1.194-2.292 2.19-3.687 2.688-1.296.696-2.591 1.393-4.086 2.09 8.67 5.973 17.639 10.95 24.117 11.249 7.873.398 10.364-1.593 12.358-6.371 1.594-3.783 4.185-17.819 6.577-29.167a18.566 18.566 0 0 0-3.189 1.493zM223.59 231.45c2.89 3.086 8.371 2.787 12.258-.796 3.189-2.887 4.485-6.969 3.289-10.055-.2.299-.499.697-.698.996-1.295 1.991-3.089 2.688-5.082 2.19-2.99-.697-5.781-2.29-7.774-4.48-3.986 3.584-4.883 9.059-1.993 12.145z"/><path d="M248.31 203.28c-.398.796-.797 1.692-1.196 2.489 7.275 7.964 14.152 18.516 13.554 21.303-.598 2.688-8.969 9.059-15.846 11.547-6.876 2.589-25.712 8.561-29.299 3.186-1.894-2.887 1.196-21.502 2.99-33.448-.897.398-1.794.896-2.891 1.493-2.292 10.254-5.381 24.489-6.278 28.968-.997 4.58-1.495 8.064.797 10.553 1.097 1.194 3.09 1.791 6.079 1.791 1.794 0 3.588-.199 5.183-.398.697-.099 1.395-.199 1.993-.199 5.979-.498 11.161-1.394 16.045-2.787 6.179-1.792 17.44-6.073 24.117-14.435 3.189-3.982 1.096-8.959-1.196-12.841-1.893-3.186-9.069-11.647-14.052-17.222zM291.86 193.72l-1.196 1.792c-.598.996-1.296 1.991-1.894 2.987l-.099.099c-.2.398-.499.697-.698 1.095-.399.697-1.495 2.389-2.79 3.684a4.427 4.427 0 0 1-1.495 1.194c-.698.398-1.395.597-2.093.498-1.794 5.873-8.571 15.529-10.364 15.828-1.894.299-11.561-13.14-20.43-23.195-.399.996-.897 1.991-1.296 2.987 6.279 7.565 13.354 16.525 14.75 18.516 1.395 1.891 3.089 6.072 5.78 6.669 3.189.797 5.481-.995 7.175-3.086 2.492-3.185 4.684-6.57 6.677-10.054 3.389-5.774 6.279-12.244 7.973-19.014z"/><path d="M262.86 204.57c3.488.299 6.677-3.783 7.076-9.158.199-2.588-.299-4.978-1.296-6.769-.398.099-.697.199-.996.298-2.392.797-6.179 1.792-9.866 3.086-.2.797-.399 1.593-.399 2.489-.498 5.276 1.993 9.755 5.481 10.054zM143.67 200.59c-1.893 3.484-1.096 7.665.598 11.448.2-.199.499-.298.798-.498v-.099c0-.299 0-.597-.1-1.195-.399-3.185-.797-6.371-1.296-9.656z"/></g><g fill="#e42320"><path d="M323.75 178.39c-.099-.498-.199-1.095-.299-1.593-2.989.598-5.58 1.095-7.873 1.593l-.897.199h-.299c-.398 0-.697-.099-.996-.298-.399-.299-.598-.697-.698-1.195l-.099-.896v-.299l-3.588 3.385-.199.199-.1.1c-.199.199-.399.398-.698.398l-.697.099c-2.292.498-5.083 1.095-8.372 1.892 0 0 0 .099-.099.099.299 15.629-4.285 31.258-14.251 44.797a73.413 73.413 0 0 1-8.172 9.357c-28.303 27.874-76.039 32.154-112.41 8.362-1.695-1.095-3.389-2.289-4.983-3.583-2.392 1.095-4.884 2.289-7.574 3.384-.598.299-1.196.398-1.894.398-.797 0-1.495-.199-2.192-.497-.399-.199-.698-.598-1.096-.896-.598 1.493-1.595 3.086-2.891 4.081-.398.299-.797.697-1.295.896-6.079 2.588-13.753 5.376-23.021 8.561 7.474 9.158 16.344 17.222 26.509 23.991 19.732 13.14 42.554 20.507 66.073 21.104h3.189c2.292 0 4.584-.099 6.877-.199 34.282-1.991 65.575-18.516 84.609-45.095 16.344-22.697 22.523-50.471 17.44-78.344zm-152.28 95.068c-.498.498-.997.896-1.595 1.195-.597.298-1.096.597-1.793.796h-.1l-1.993.697c-.1 0-.299.099-.399.099-.199 0-.299.1-.398.1-.1 0-.299.099-.499.099-.099 0-.299 0-.498.1H163.398c-.598 0-1.196 0-1.894-.1-.598-.099-1.295-.199-1.893-.398s-1.296-.398-1.894-.697c-.299-.099-.598-.298-.897-.497l-.598.896-.897.298-1.096.398-4.185-2.687 1.494-2.091c-.697-.498-1.295-.995-1.893-1.493s-1.096-1.095-1.495-1.593c-.399-.597-.797-1.095-1.096-1.692s-.499-1.195-.698-1.792-.199-1.294-.299-1.891c0-.598.1-1.294.2-1.892.099-.597.398-1.194.697-1.891.299-.597.698-1.195 1.096-1.792.299-.398.698-.796.997-1.195.399-.398.698-.696 1.096-.995.399-.299.797-.597 1.196-.796.399-.2.797-.399 1.296-.598l1.893-.697c.1 0 .1 0 .199-.099.598-.199 1.296-.398 1.894-.398H157.418c.598 0 1.196 0 1.794.099.598.1 1.196.199 1.894.398.598.2 1.295.399 1.893.697.299.1.598.299.897.498l.498-.697 1.993-.697 4.086 2.688-1.395 1.991c.698.498 1.296.996 1.894 1.493.598.498.996.996 1.495 1.593.398.597.797 1.095 1.096 1.692.299.598.498 1.195.697 1.792.2.597.2 1.195.299 1.892 0 .597 0 1.194-.199 1.891-.1.597-.299 1.195-.598 1.792s-.598 1.194-1.096 1.792c-.299.697-.698 1.194-1.196 1.692zm25.014 17.62l-.897.299-1.096.298-5.083-1.393-.099-5.675s-4.485-1.294-6.677-1.891l-2.691 3.783-.897.298-1.096.299-4.784-1.394 14.75-19.511 1.993-.697 5.481 1.593 1.096 23.991zm28.502-4.181c-.099.498-.199.896-.398 1.294-.2.398-.399.796-.698 1.195a4.726 4.726 0 0 1-.997.995c-.298.299-.697.498-.996.697l-1.196.597c-.199.1-.498.199-.598.199l-1.893.598c-.2.099-.299.099-.499.099-.199 0-.299.1-.498.1s-.399.099-.498.099h-1.296l-9.268-.099v-1.394c.1-4.878.498-20.606.498-20.606l1.894-.598 14.849.299-.1 3.882-.996.299-.997.299-8.172-.199-.1 3.583 4.385.1c.598 0 1.097.099 1.694.099.499.1.997.199 1.495.399.499.199.897.398 1.296.597s.797.498 1.196.796c.398.299.697.697.897.996.299.398.498.796.697 1.194.2.398.299.896.399 1.294.1.498.1.896.1 1.494-.1.696-.1 1.194-.2 1.692zm24.815-10.95c-.1.497-.199.896-.299 1.393-.199.498-.398.896-.598 1.294l-.897 1.195a3.112 3.112 0 0 1-1.096.896c-.399.299-.897.498-1.295.697-.499.199-.997.398-1.595.498l-4.186 1.095 1.695 6.57h-.2.1l-.997.298-.996.299-2.193.597-2.093.498h-.199l-5.381-21.104 1.993-.597 8.869-2.19c.2 0 .299-.1.499-.1.199 0 .299-.099.498-.099s.299 0 .398-.1c.1-.1.299 0 .399 0h1.096c.299 0 .698.1.997.199.299.1.698.199.997.299.299.099.597.298.896.497.399.299.798.498 1.196.896.399.299.698.697.997 1.095.299.399.498.797.698 1.295.199.497.398.995.498 1.493.099.497.199 1.095.299 1.592-.1.598-.1 1.096-.1 1.494zm26.409-.896l-.597.199-1.396.398s-3.488-5.873-5.581-9.457l-.797 13.837-3.687 2.19-.598.199-1.495.398-10.962-18.515 3.886-2.19 1.994-.598 5.68 9.557.797-13.837 3.688-2.091 1.993-.597 10.962 18.317-3.887 2.19zm21.726-19.312l-.997.298-.996.299-9.468-.498 6.079 5.774-2.89 3.185-.697.199-1.396.399-15.446-14.534 2.989-3.186 1.993-.697 4.684 4.48c-.498-3.285-1.295-9.557-1.295-9.557l3.289-3.484 1.993-.697 1.793 13.141 13.853.896-3.488 3.982zm15.048-24.091l-.996.299-.997.298-3.488-.696-2.691 5.375 3.688 3.683-1.894 3.783-.797.299-1.196.398-15.248-16.127 2.193-4.38 1.993-.697 21.327 3.584-1.894 4.181z"/><path d="M301.13 233.44l1.395-2.887-5.282-1.095 3.887 3.982zM242.83 273.86c-.1-.298-.199-.498-.399-.697-.099-.199-.299-.398-.498-.597s-.398-.299-.598-.398c-.099-.1-.299-.1-.398-.199-.2-.1-.299-.1-.499-.1-.199 0-.299-.099-.498-.099H238.844c-.1 0-.2 0-.299.099-.1 0-.2 0-.299.1 0 0-.598.099-1.196.298l1.893 7.168 2.293-.597c.099 0 .099-.1.199-.1s.1-.1.199-.1c.1-.099.299-.199.399-.199.099 0 .099-.099.099-.099.1-.1.299-.199.399-.299.1-.099.299-.298.399-.498l.299-.597c.099-.199.099-.498.199-.697v-.796c0-.299-.1-.597-.1-.796-.299-.299-.398-.498-.498-.797zM218.31 285.2c0-.199-.099-.399-.199-.598l-.299-.597c-.1-.199-.299-.299-.498-.498-.2-.099-.399-.298-.598-.398-.2-.099-.499-.199-.698-.299-.299-.099-.498-.099-.797-.199-.299 0-.598-.099-.897-.099h-1.395l-.1 5.774H216.516c.299 0 .499-.1.399 0 .1 0 .1-.1.199-.1.2-.1.299-.299.499-.498.099-.199.299-.298.299-.497.099-.2.199-.399.199-.598s.1-.497.1-.697v-.099c.199-.199.199-.398.099-.597zM185.52 278.43l3.886 1.095c0-1.692 0-4.678-.099-6.47l-3.787 5.375zM160.01 258.62c-.299-.099-.697-.298-.996-.398-.299-.099-.698-.199-.997-.199s-.697-.099-.996 0h-.698s-.1 0-.1.1c-.299.199-.598.398-.897.697-.299.298-.498.597-.797.895-.299.399-.498.697-.598 1.095a4.837 4.837 0 0 0-.398 1.096c-.1.398-.1.696-.1 1.095 0 .398 0 .696.1 1.095.099.398.199.696.299.995.199.299.298.697.597.995.2.299.499.598.798.896l.099.1 5.681-7.864a8.6 8.6 0 0 1-.997-.598zM167.39 264.5a2.658 2.658 0 0 0-.598-.996c-.199-.298-.498-.597-.797-.896 0 0-.1 0-.1-.099l-5.68 7.864c.299.199.697.398.996.498.299.099.698.298.997.398s.697.199.996.199.698.1.997 0H164.799c.199-.099.399-.299.598-.398.199-.199.498-.398.697-.597.2-.2.399-.498.598-.797.2-.298.499-.697.598-1.095.2-.398.299-.697.399-1.095.1-.298.1-.697.1-1.095s0-.697-.1-1.095c-.1-.099-.199-.498-.299-.796zM133.9 125.33c2.591-2.687 5.182-3.185 6.378-3.285 2.691-.298 5.382-.497 7.873-.697 26.011-24.687 67.668-30.063 102.15-12.742a208.973 208.973 0 0 1 16.245-2.887c.797-.099 1.594 0 2.292.498a3.46 3.46 0 0 1 1.993-.995c1.595-.199 3.289-.398 4.883-.498-.797-.597-1.694-1.195-2.491-1.792-18.337-12.244-39.564-19.511-61.489-20.905-2.591-.199-5.182-.199-7.774-.298-1.195 0-2.292.099-3.488.099-1.096 0-2.192 0-3.288.1-2.093.099-4.086.298-6.179.497h-.498c-30.894 3.485-58.699 18.815-76.637 42.507 5.581-.796 11.062-1.493 16.543-1.991 1.594 0 2.89.996 3.488 2.389zM103.51 166.64V165.843a173.237 173.237 0 0 1-5.68 1.692c-.1.598-.1 1.095-.2 1.792v.1c.897 12.244 2.193 30.063 3.787 53.457.1 1.394.499 1.991.698 2.09.1.1.199.199.997.299h.498c.897-.1 1.794.199 2.491.796a4.813 4.813 0 0 1 1.994-1.393c.298-.1.199-.1.298-.1 0 0 .2-.498.2-1.493 0-.299 0-.697-.1-1.095-1.694-18.715-3.388-37.131-4.983-55.348z"/></g><g fill="#0d0802"><path d="M312.99 231.65l-5.082-.995-.399.995 3.388.697.997-.398 1.096-.299zM302.52 230.55l-1.395 2.887 1.096 1.194 2.392-4.778-8.272-1.593-.099.2.996.995 5.282 1.095z"/><path d="M291.36 228.36l1.195-2.389 1.097-1.991h-.1l-1.993.697-2.193 4.38 15.148 16.127 1.296-.399.797-.298-15.247-16.127z"/></g><g fill="#0d0802"><path d="M274.22 250.26l1.595-1.692 1.295-1.493-1.993.597-2.989 3.186h.099-.099l15.446 14.534 1.396-.399.697-.199-15.447-14.534zM297.94 255.74l-11.162-.598-.498.498.199.299 9.468.497.996-.298.997-.398zM280.5 242s.897 6.271 1.295 9.557l1.794 1.692.498-.498-1.395-10.054v-.299l-.199-1.095 3.289-3.484-1.993.697L280.5 242z"/></g><g fill="#0d0802"><path d="M253.09 263.7l1.893-1.095 1.894-1.095-1.993.598-3.887 2.19 10.962 18.515 1.495-.398.598-.199L253.09 263.7zM269.04 254.44l-1.993.598-3.588 2.19v-.1.1l-.797 13.737 1.595 2.688.199-.099.996-17.023 3.588-2.091zM276.21 275.05l-7.275-12.145-.199.1-.199 3.185c2.093 3.584 5.581 9.457 5.581 9.457l1.395-.398.697-.199z"/></g><g fill="#0d0802"><path d="M241.33 289.68l-4.484 1.095-5.382-21.104-1.993.597 5.381 21.105h.2l2.093-.498 2.192-.597.997-.299.996-.299h-.099.099zM244.82 273.26c-.099-.299-.199-.498-.398-.697-.1-.199-.299-.398-.499-.597-.199-.199-.398-.299-.598-.398-.099-.1-.299-.1-.398-.199-.2-.1-.299-.1-.499-.1-.199 0-.299-.1-.498-.1H240.834c-.1 0-.199 0-.299.1-.1 0-.199 0-.299.1l-3.189.796v.099c.698-.199 1.196-.298 1.196-.298.099 0 .199 0 .299-.1.099 0 .199 0 .299-.099h1.096c.199 0 .299 0 .498.099.2 0 .299.1.499.1.199.099.299.099.398.199.2.099.399.299.598.398.199.199.299.299.498.597.1.199.299.399.399.697.1.299.199.498.299.797.1.298.1.597.1.796v.796c0 .199-.1.498-.2.697a166.2 166.2 0 0 1-.299.597c-.099.2-.199.299-.398.498-.1.1-.2.199-.399.299l-.1.099c-.099.1-.298.199-.398.199s-.1.1-.199.1c-.1 0-.1.1-.2.1l.997-.2.897-.298h.099l.598-.299s.1 0 .1-.099c.199-.1.399-.299.498-.399l.499-.497.299-.598c.099-.199.099-.497.199-.696v-.797c0-.298-.1-.597-.1-.796-.099-.398-.199-.597-.299-.896z"/></g><g fill="#0d0802"><path d="M220.11 291.87c-.199.1-.299.1-.498.1-.2 0-.399.099-.499.099-.199 0-.398.1-.498.1h-1.395l-9.268-.1.398-18.715.1-3.384-1.893.597s-.399 15.629-.499 20.606v1.394l9.268.1h1.296c.199 0 .399 0 .498-.1.2 0 .399-.099.499-.099.199 0 .299-.1.498-.1l1.993-.498z"/><path d="M220.11 283.91l-.299-.597c-.1-.199-.299-.298-.498-.498-.2-.099-.399-.298-.598-.398-.199-.099-.498-.199-.698-.298-.299-.1-.498-.1-.797-.199-.299 0-.598-.1-.897-.1l-3.289-.1v.598h1.396c.299 0 .598 0 .896.099.299 0 .598.1.798.199.299.1.498.199.697.299.2.1.399.199.598.398.2.1.299.299.499.498l.299.597c.099.199.099.398.199.598V285.802c0 .299 0 .498-.1.697 0 .199-.099.398-.199.597s-.199.398-.299.498c-.1.199-.299.298-.498.497-.1 0-.1.1-.2.1h.399c.199 0 .498-.1.698-.199.199-.1.398-.1.598-.199.199-.1.398-.199.498-.299.199-.099.299-.298.498-.498.1-.199.299-.298.299-.497.1-.199.199-.398.199-.598 0-.199.1-.497.1-.696v-.697l-.299-.598zM223.3 274.25l-10.165-.199v.697l8.172.199.997-.298.996-.399z"/></g><g fill="#0d0802"><path d="M175.26 285l8.072-10.752 6.677-8.76-1.993.597-14.749 19.611v-.099.099l4.783 1.294.997-.298.897-.299L175.26 285zM196.49 291.08l-5.082-1.394-.1-5.574v-.1l-7.973-2.29-.697.996c2.192.597 6.577 1.891 6.677 1.891l.099 5.675 5.083 1.393 1.096-.298.897-.299zM189.41 279.53l1.994.598-.1-9.059v-.299l-.299-.099-1.694 2.389c.099 1.792.099 4.878.099 6.47z"/></g><g fill="#0d0802"><path d="M152.14 273.26l.798-1.095.697-.996c-.697-.497-1.295-.995-1.893-1.493s-1.097-1.095-1.495-1.593c-.399-.597-.797-1.095-1.096-1.692s-.499-1.194-.698-1.792c-.199-.597-.199-1.294-.299-1.891 0-.597.1-1.294.199-1.892.1-.597.399-1.194.698-1.891 0 0 0-.099.1-.099.299-.498.598-1.095.996-1.593 0 0 0-.1.1-.1.299-.398.697-.896.996-1.194.399-.399.698-.697 1.097-.996.398-.298.797-.597 1.196-.796.398-.199.797-.398 1.295-.597l-1.893.696c-.399.199-.897.399-1.296.598s-.797.497-1.196.796c-.398.299-.797.597-1.096.995-.399.399-.698.797-.997 1.195-.398.597-.797 1.195-1.096 1.792s-.498 1.194-.698 1.891c-.099.598-.199 1.195-.199 1.892 0 .597.1 1.294.299 1.891s.399 1.195.698 1.792.697 1.195 1.096 1.692c.399.598.897 1.095 1.495 1.593.498.498 1.196.996 1.893 1.493l-1.495 2.091 4.186 2.688 1.096-.399.897-.298-4.385-2.688zM166.69 253.15l-1.993.697-.498.697c.299.199.698.299.997.597l1.494-1.991zM169.28 263.8c-.2-.299-.299-.697-.598-.996-.2-.298-.499-.597-.798-.895-.299-.299-.598-.598-.996-.797l-1.097 1.493s.1 0 .1.1c.299.299.598.597.797.896.2.298.399.597.598.995.2.299.299.697.299.996.1.398.1.697.1 1.095s-.1.697-.1 1.095c-.099.298-.199.697-.398 1.095-.2.398-.399.697-.598 1.095-.2.298-.399.498-.598.796-.2.199-.499.398-.698.598-.199.199-.398.298-.598.398h.2c.398-.1.697-.199.996-.299 0 0 .1 0 .1-.099.299-.1.498-.299.797-.399.1 0 .1-.099.199-.099.299-.199.499-.398.698-.598l.1-.099c.299-.299.498-.597.797-.896.299-.398.498-.697.598-1.095a4.83 4.83 0 0 0 .398-1.095c.1-.398.1-.697.1-1.095s0-.697-.1-1.095c0-.398-.099-.697-.298-1.095zM167.98 275.55c-.1 0-.299.099-.399.099-.099 0-.299.1-.398.1-.2 0-.299.099-.499.099-.099 0-.299 0-.398.1h-.798c-.597 0-1.195 0-1.893-.1-.598-.099-1.296-.199-1.893-.398-.598-.199-1.296-.398-1.894-.697s-1.296-.597-1.893-.995l-.897 1.194c.299.1.598.299.897.498.597.299 1.295.498 1.893.697s1.296.298 1.894.398c.597.1 1.195.1 1.893.1h.797c.2 0 .299 0 .499-.1.199 0 .299-.1.498-.1.099 0 .299-.099.398-.099.2 0 .299-.1.399-.1l1.794-.696z"/><path d="M156.13 267.78l6.776-9.358a4.628 4.628 0 0 0-.996-.497c-.299-.1-.698-.299-.997-.399-.299-.099-.697-.199-.996-.199s-.698-.099-.997 0H158.123c-.399.1-.698.1-1.096.299-.299.1-.598.299-.798.398H157.924c.298 0 .697.1.996.199.299.1.698.199.997.398.299.1.697.299.996.498l-5.68 7.864c.299.299.598.598.897.797z"/></g><path d="M312.99 231.65l1.993-4.081-21.326-3.584-2.193 4.48 15.248 16.126 1.893-3.783-3.687-3.683 3.089-6.371 4.983.896zm-10.763 2.986l-6.079-6.171.1-.2 8.271 1.593-2.292 4.778zM285.78 237.92l-3.189 3.384 1.594 11.448-.498.498-6.578-6.172-2.89 3.086 15.447 14.633 2.89-3.185-6.278-5.973.498-.498 11.162.598 3.588-3.783-13.853-.896-1.893-13.14zM265.45 256.53l-.996 17.023-.199.099-7.275-12.244-3.887 2.19 11.062 18.615 3.687-2.19.897-17.022.199-.2 7.275 12.245 3.787-2.29-10.962-18.317-3.588 2.091zM249.01 271.47c-.199-.498-.498-.896-.698-1.294-.299-.398-.598-.796-.996-1.095-.399-.299-.698-.597-1.196-.896-.299-.199-.598-.299-.897-.498-.299-.099-.598-.199-.997-.298-.299-.1-.697-.1-.996-.199h-1.495c-.1 0-.299 0-.399.099-.199 0-.299 0-.498.1-.199 0-.299.099-.498.099l-8.87 2.19 5.382 21.104 4.484-1.095-1.694-6.57 4.186-1.095c.598-.099 1.096-.299 1.594-.498s.897-.497 1.296-.696c.398-.299.797-.598 1.096-.896.299-.399.598-.697.897-1.195.299-.398.498-.896.598-1.294s.299-.896.299-1.394a3.79 3.79 0 0 0 0-1.493c0-.498-.1-.995-.299-1.593.1-.597-.1-1.095-.299-1.493zm-3.787 4.181c0 .199-.1.498-.199.697l-.299.597c-.1.199-.299.398-.499.597-.199.2-.398.299-.598.498-.199.1-.498.299-.797.398l-.897.299-3.189.796-1.893-7.366 3.189-.796c.099 0 .199-.1.299-.1.099 0 .199 0 .299-.1h1.096c.199 0 .299 0 .498.1.199 0 .299.1.498.1.2.099.299.099.399.199.199.099.399.298.598.398.199.199.299.298.498.597.1.199.299.398.399.697s.199.498.299.796c.1.299.1.598.1.797.199.298.199.597.199.796zM224.59 282.62c-.2-.398-.399-.796-.698-1.194s-.598-.697-.897-.996c-.398-.298-.697-.597-1.196-.796-.398-.199-.897-.398-1.295-.597-.499-.199-.997-.299-1.495-.399-.498-.099-1.096-.099-1.694-.099l-4.385-.1.099-4.28 10.165.199.1-3.882-14.849-.299-.498 22 9.268.1H218.012c.499 0 .997-.1 1.395-.2.399-.099.897-.199 1.296-.398s.797-.298 1.196-.597c.399-.199.698-.498.996-.697.399-.299.698-.697.997-.995.299-.399.498-.797.698-1.195.199-.398.299-.896.398-1.294.1-.498.2-.996.2-1.493 0-.498 0-.996-.1-1.494-.1-.497-.299-.895-.498-1.294zm-4.286 3.385c0 .199-.099.398-.199.597s-.199.398-.299.498c-.1.199-.299.299-.498.498-.2.099-.299.199-.498.298-.2.1-.399.199-.598.199-.2.1-.399.1-.698.2-.199 0-.498.099-.797.099h-3.688l.1-6.371 3.289.1c.299 0 .598 0 .897.099.299 0 .598.1.797.199.299.1.498.199.698.299.199.099.398.199.597.398.2.1.299.299.499.498l.299.597c.099.199.199.398.199.597 0 .2.1.498 0 .697 0 .1-.1.299-.1.498zM190.01 265.49l-14.749 19.611 4.784 1.394 3.388-4.779 7.973 2.29.099 5.674 5.083 1.394-.997-23.991-5.581-1.593zm-4.484 12.941l5.481-7.764.299.099.1 9.358-5.88-1.693zM173.76 262.61a9.859 9.859 0 0 0-1.096-1.692c-.399-.597-.897-1.095-1.495-1.593-.598-.497-1.196-.995-1.893-1.493l1.395-1.991-4.086-2.688-1.395 1.991c-.598-.398-1.296-.697-1.894-.995-.598-.299-1.296-.498-1.893-.697-.598-.199-1.196-.299-1.894-.398-.598-.1-1.196-.1-1.794-.1H156.918c-.698.1-1.296.199-1.894.398-.598.2-1.195.498-1.793.797-.598.298-1.097.796-1.595 1.194-.498.498-.997.996-1.395 1.593-.399.597-.797 1.195-1.096 1.792s-.499 1.195-.698 1.891c-.1.598-.199 1.195-.199 1.892 0 .597.099 1.294.299 1.891.199.597.398 1.195.697 1.792s.698 1.195 1.096 1.692c.399.598.897 1.095 1.495 1.593s1.196.996 1.894 1.493l-1.495 2.091 4.186 2.688 1.495-2.091c.697.398 1.295.697 1.893.996.598.298 1.296.497 1.894.696.597.2 1.295.299 1.893.399.598.099 1.196.099 1.893.099h.798c.697-.099 1.295-.199 1.893-.398s1.196-.498 1.794-.796c.598-.299 1.096-.797 1.595-1.195.498-.498.996-.995 1.395-1.593.398-.597.797-1.194 1.096-1.792a6.328 6.328 0 0 0 .598-1.791c.1-.598.199-1.195.199-1.892 0-.597-.099-1.194-.299-1.891-.299-.697-.498-1.294-.797-1.892zm-17.639 5.177c-.399-.299-.698-.597-.997-.797-.299-.298-.598-.597-.797-.896a8.562 8.562 0 0 1-.598-.995 1.923 1.923 0 0 1-.299-.995c-.1-.399-.1-.697-.1-1.095 0-.399.1-.697.1-1.095.1-.399.199-.697.399-1.096.199-.398.398-.696.597-1.095.299-.298.499-.696.798-.895.299-.299.598-.498.897-.697s.598-.398.996-.498c.299-.1.698-.199 1.096-.299h1.794c.299 0 .698.1.997.199.299.1.698.2.996.399.299.099.698.298.997.497l-6.876 9.358zm13.553-.797a4.86 4.86 0 0 1-.398 1.095c-.2.399-.399.697-.598 1.095-.299.299-.499.697-.798.896-.299.299-.598.498-.897.697s-.598.398-.996.498c-.299.1-.698.199-1.096.299h-1.794c-.299 0-.698-.1-.997-.199-.299-.1-.697-.2-.996-.399a4.635 4.635 0 0 1-.997-.497l6.777-9.358c.398.299.697.498.996.797.299.298.598.597.798.895.199.299.398.598.598.996.199.299.298.697.298.995.1.399.1.697.1 1.095.1.399 0 .697 0 1.095zM341.79 165.35c-.299-3.185-.996-6.57-1.893-9.954l-.199-.896-.897.199c-.299 0-.499.099-.798.099-.697 0-.896-.199-.996-.298a2327.798 2327.798 0 0 1-14.152-32.751v-.1c-.598-.995-.398-1.394-.398-1.394s.099-.199 1.096-.497l.897-.299-.299-.896c-.399-1.294-.698-2.588-1.096-3.882-.698-2.489-1.395-4.878-2.093-7.367l-.199-.697h-.698c-1.794-.099-3.787-.099-6.079-.199a332.45 332.45 0 0 0-14.052 0h-.997v.996c.1 4.778.1 8.66.399 11.846v.697l.698.199c.498.199.897.398.996.597.1.299.1.697-.199 1.294l-.1.199c-1.295 9.955-3.089 22.299-5.082 36.634l-.1.896.897.199h.498c3.09 1.095 5.681 3.683 6.777 6.869a2.761 2.761 0 0 1 0 1.791 49.838 49.838 0 0 1-1.694 4.082l-.797 1.792 4.783-1.095c2.791-.697 5.182-1.195 7.275-1.693l.798-.199v-.796c0-3.584-.1-7.068-.399-10.453l-.1-1.592h-.099v-.1l-.997.1h-.897c0-3.385.1-7.068.299-10.652l2.093-.298c1.395-.2 2.79-.299 4.484-.399 1.097 3.484 1.894 6.67 2.392 9.557 0 .199-.199.498-1.295.796l-.798.199.1.896c.1.996.299 1.991.399 2.987.299 2.19.598 4.479.996 6.669l.2 1.693h.099v.199l.997-.199c2.79-.598 6.079-1.195 9.866-1.991 2.89-.598 6.079-1.195 9.667-1.892l.897-.199-.2-.697zm-26.708-30.262l-1.594.199-1.196.199c.199-2.09.498-4.081.897-5.873.498 1.394 1.096 2.986 1.694 4.878l.199.597z" fill="#fff"/><path d="M313.58 127.82c-.199-.498-.398-.995-.697-1.493-.897 2.986-1.396 6.47-1.695 10.253h.399l1.993-.398 2.791-.299c-.1-.298-.2-.497-.299-.796a144.516 144.516 0 0 0-2.492-7.267z" fill="#0d0802"/><path d="M302.22 167.94l-.099-.399c-1.097-2.886-2.891-4.778-5.781-5.873l-.299-.099-.299.099c-.398.1-.797.299-1.195.398h-.1c-.498.199-.897.299-1.296.399l-.897.199c-1.195.298-1.893.298-1.893.199-.1-.1-.299-.498-.299-2.389-.1-6.77.1-13.838.299-20.706v-.398c.199-5.675.299-11.448.299-17.023 0-1.294.698-1.792 1.893-2.29l.598-.298v-.697c0-2.588.1-4.181.1-5.674.1-1.892.199-3.485-.1-6.67l-.099-.896h-.897c-4.086.1-12.557.199-21.227 1.493l-.897.1v6.072c0 3.186 0 5.276.498 8.86l.1.796h.897c1.195 0 1.395.498 1.395 1.294.598 9.457.797 18.118.996 26.38v.498c.1 3.385.2 6.769.299 10.055.2 2.687 0 2.687-2.292 3.384-.398.1-.697.199-.897.199-.398 0-.797-.199-1.395-2.09-1.495-6.969-1.893-16.426-2.392-27.276v-.398c-.099-2.788-.299-5.675-.398-8.661 0-1.294.099-2.489 1.096-2.787l.697-.2v-.696c0-.996-.099-1.991-.099-3.285-.1-1.593-.199-3.584-.399-6.371 0-1.295-.199-4.48-.199-4.48l.1-1.394-1.495.299c-.1 0-9.468 1.493-16.245 2.887a28.913 28.913 0 0 0-3.986.995l-.697.199v.697c.099 6.869.298 11.149 1.096 16.625l.099.696.698.1c.498.1.598.199.897 1.692l.997 6.272c1.295 8.163 2.092 12.344 2.89 16.724v.099c.498 2.788 1.096 5.973 1.993 10.751.697 2.688 0 3.385-.698 3.982l-.498.498.498 3.683v.299a10.312 10.312 0 0 0-2.491-2.091c-.598-.298-1.196-.597-1.794-.796l-.299-.099-.299.099c-2.392.796-4.086 1.294-5.083 1.294-.498 0-.598-.099-.697-.199-.1-.199-.399-.597-.399-2.19-.1-5.774-.199-11.846-.199-17.919-.1-5.873-.1-11.647-.1-17.321 0-1.991.797-3.185 2.591-3.882l.598-.199v-.697c0-5.774-.099-10.552-.299-14.932l-.099-2.887v-.199l-1.196.298c-4.784 1.295-11.162 2.589-21.227 4.48l-.798.199v.797c.1 7.067.399 12.841 1.096 17.62l.1.895h.897c.498 0 1.096 0 1.196 1.593.399 5.774.797 11.249 1.196 16.625v.099c.598 6.969 1.096 13.638 1.395 20.109.199 2.688 0 2.688-2.292 3.384-.399.1-.698.199-.897.199-.399 0-.797-.199-1.395-2.09-1.794-8.561-3.189-21.303-3.987-37.032-.099-1.095.299-1.792 1.396-2.389l.498-.298v-.598c-.1-3.285-.498-9.556-1.096-16.724l-.1-1.792v-.199l-1.096.199c-4.186.598-21.626 2.688-21.825 2.688l-.897.1.1.995c.498 7.665 1.096 13.539 1.893 18.516l.1.697.797.099c.996.1.996.1 1.395 2.29l.797 4.878c1.595 9.855 3.09 17.222 4.286 23.792.897 4.579 1.794 8.959 2.591 13.837.697 2.688 0 3.384-.698 3.982l-.498.497.498 3.286c.498 3.583 1.096 7.466 2.292 12.144l.1.498c0 .199.1.398.1.697l.299 1.294v.199l2.092-1.095c4.086-2.09 8.671-4.48 10.863-5.475.997-.498 2.791-1.294 4.784-2.29a114.53 114.53 0 0 0 5.082-2.588 628.555 628.555 0 0 1-2.392 16.027l-.099.398.199.299c1.495 2.091 3.787 3.584 6.777 4.281h.299c.398 0 .797-.199.996-.598 5.382-9.755 9.767-18.814 12.757-26.977 1.196-3.186 2.192-6.271 3.089-9.158.299 1.393.598 2.787.997 4.479l.398 1.792v.199l1.097-.398c3.488-1.394 7.275-2.489 9.965-3.285l2.791-.796c1.196-.399 3.388-.996 5.581-1.593 1.494-.398 2.989-.797 4.185-1.195-.697 5.376-1.295 8.86-2.093 13.937l-.099.398.199.299c1.495 2.09 3.787 3.583 6.777 4.28.199.1.299.1.398.1h.399l.199-.1.2-.099.199-.199c4.983-7.466 8.471-13.34 11.261-18.914.798-1.593 1.495-2.987 2.093-4.48l.299-.498c.897-2.09 1.794-4.181 2.691-6.47h.199zM205.76 190.93l-.099-.796h-.798c-3.787-.1-4.584-1.693-4.783-2.29-.698-5.674-1.395-11.348-2.093-16.823-1.196-8.761-2.292-17.819-3.388-27.774-.2-1.294.199-1.892 1.495-2.389l.697-.199-.1-.797c-.398-5.176-.996-9.954-1.494-14.235l-.698-5.276-.897.099c-4.883.399-9.667.797-15.148 1.096-2.093.099-4.186.298-6.378.497l-1.595.1.1.995c.399 4.281.897 8.462 1.296 12.145l.099.498c.2 1.692.399 3.285.698 4.579v.398c.1.797.199 1.593.199 2.29l.2.896h.398v.099h.698c.697 0 1.794.1 2.093.697.199.299.498 1.493-1.595 4.679-2.392 3.384-4.784 7.267-6.976 11.448-.199.398-.399.796-.698 1.095-.498-4.281-.996-8.86-1.395-13.539-.398-2.687.498-3.185 1.395-3.484l.798-.199-.1-.796c-.698-7.068-1.395-14.435-2.392-20.806l-.099-.896-.897.1c-7.475.498-14.75 1.095-22.224 1.991l-2.691.298.1.996c.598 6.072 1.096 11.448 1.594 16.127v.099c.299 2.489.499 4.878.798 7.068.099.498.398.796 1.096.896.199.1.498.1.697.1.698 0 1.994 0 2.093 3.285a1125.242 1125.242 0 0 0 6.079 53.656c.598 3.484-.598 4.479-1.893 5.077l-.598.298v.697c.199 8.163.996 16.425 2.591 24.688.1.398.299.697.598.796.199.1.299.1.498.1h.299l.2-.1c10.065-4.479 17.44-8.063 23.12-11.249l.598-.298v-.598c-.697-9.357-1.694-16.624-2.89-22.199l-.299-1.692-.996.299c-.1 0-.2.099-.299.099-.798 0-1.196-1.991-1.196-2.588l-.1-1.095c-.698-7.566-.698-7.566 7.275-19.909l1.395-2.39a229.876 229.876 0 0 1 2.093 18.218c.199 2.19-.399 3.981-1.694 4.877l-.498.299.099.597c.598 6.77 1.495 13.738 2.392 20.408l.299 1.194.299 1.692.199-.099v.099l1.097-.597c5.381-2.986 23.319-13.737 23.519-13.837l.498-.299-.1-.597c-.697-4.48-1.494-10.751-2.591-17.819zM143.57 231.85l-.2-1.891v-1.294l-.199-2.091c-.498-3.783-.897-7.068-1.295-9.955l-.1-1.194h-.1l-.099-.398-.997.199c-.498.099-.897.099-1.296.099-1.195 0-2.391-.298-2.491-2.887-1.794-20.307-3.488-38.823-5.083-54.85-.498-4.082 1.097-5.276 2.293-5.874l.598-.298-.1-.697c-.698-9.258-1.694-17.321-2.89-24.688l-.2-.896-.896.1c-20.829 2.09-42.953 6.072-65.874 11.846l-.798.199v.796c.299 5.973.598 11.548.798 16.724.299 6.172.598 11.847.797 17.023v.896h.897c1.893.099 3.189.597 4.086 1.493.897.996 1.196 2.489 1.096 4.48v.199c.897 17.321 1.894 33.647 2.79 48.38.1 4.48-1.594 6.769-5.58 7.566l-.798.199v.796c.299 9.358.598 18.317 1.097 26.679 0 .298.199.597.398.796.2.199.499.299.798.299h.199c13.254-2.389 25.313-5.276 35.677-8.462l.798-.199v-.796c-.698-10.552-1.296-18.416-1.994-25.683v-.1l-.996.1.996-.299-.099-.996-.997.1h-.697c-1.595 0-3.488-.498-3.987-4.281-1.594-23.095-2.79-41.113-3.787-53.457-.099-4.479 1.296-7.267 3.987-8.162 2.491-.797 5.082-1.593 7.673-2.29 1.097-.199 1.894 0 2.392.498.598.597.897 1.891.897 3.683 1.595 18.516 3.289 37.032 4.983 55.249.498 4.579-1.296 5.873-2.99 6.47l-.697.299.398 3.683c.797 7.964 1.495 14.833 2.193 21.005l.299 2.787v.199l1.196-.398c11.062-3.584 19.632-6.769 26.309-9.557.299 0 .299 0 2.193-.995l.598-.299-.1-.696c-.199-3.684-.598-6.571-1.096-9.159z" fill="#fff"/><linearGradient id="c" x2="1" y1=".506" y2=".506" gradientTransform="matrix(32.488 0 0 17.122 29.361 238.52)" gradientUnits="userSpaceOnUse"><stop stop-color="#f9e925" offset=".009"/><stop stop-color="#f9e522" offset=".173"/><stop stop-color="#fada1b" offset=".327"/><stop stop-color="#fbc70e" offset=".478"/><stop stop-color="#fbc009" offset=".521"/><stop stop-color="#ec6d1d" offset=".972"/></linearGradient><path d="M39.725 249.66c6.677 0 15.447 5.674 22.124 5.973-.199-5.376-.398-10.851-.598-16.624v-.498l-1.196.298c-11.261 2.091-25.014 1.693-30.694 13.738 2.989-1.991 6.577-2.986 10.165-2.986h.199v.099z" fill="url(#c)"/><linearGradient id="d" x2=".998" y1=".499" y2=".499" gradientTransform="matrix(15.646 0 0 8.959 51.883 220.3)" gradientUnits="userSpaceOnUse"><stop stop-color="#f9e925" offset=".009"/><stop stop-color="#f9e522" offset=".173"/><stop stop-color="#fada1b" offset=".327"/><stop stop-color="#fbc70e" offset=".478"/><stop stop-color="#fbc009" offset=".521"/><stop stop-color="#ec6d1d" offset=".972"/></linearGradient><path d="M66.932 220.3c-2.093.298-2.89 3.384-4.385 4.181-1.894.995-6.478.597-10.664-.697 2.592 2.787 9.966 3.982 12.258 4.479 1.097.299 2.292.498 3.389.996-.2-2.887-.399-5.873-.598-8.959z" fill="url(#d)"/><linearGradient id="e" x1="-.001" x2="1.001" y1=".503" y2=".503" gradientTransform="matrix(37.172 0 0 26.977 28.962 180.08)" gradientUnits="userSpaceOnUse"><stop stop-color="#f9e925" offset=".009"/><stop stop-color="#f9e522" offset=".173"/><stop stop-color="#fada1b" offset=".327"/><stop stop-color="#fbc70e" offset=".478"/><stop stop-color="#fbc009" offset=".521"/><stop stop-color="#ec6d1d" offset=".972"/></linearGradient><path d="M58.66 189.64c-10.863 5.774-20.529-4.579-29.698 9.656 6.378-2.289 13.554-3.285 20.131-1.493 6.378 1.692 10.663 8.163 17.042 9.258-.499-7.964-.897-16.326-1.396-24.987v-1.194c0-.398 0-.597-.099-.797h-.1c-.498 4.082-2.691 7.865-5.88 9.557z" fill="url(#e)"/><linearGradient id="f" x1="-.001" x2=".999" y1=".501" y2=".501" gradientTransform="matrix(52.52 0 0 38.147 5.841 139.27)" gradientUnits="userSpaceOnUse"><stop stop-color="#f9e925" offset=".009"/><stop stop-color="#f9e522" offset=".173"/><stop stop-color="#fada1b" offset=".327"/><stop stop-color="#fbc70e" offset=".478"/><stop stop-color="#fbc009" offset=".521"/><stop stop-color="#ec6d1d" offset=".972"/></linearGradient><path d="M30.158 177.39c9.069.597 19.533-12.145 28.203-10.055a2267.73 2267.73 0 0 0-1.196-25.982c0-.696.1-1.393.399-2.09-14.949.398-32.19 27.973-51.723 16.525 4.086 9.059 13.155 21.701 24.317 21.602z" fill="url(#f)"/><path d="M100.42 97.158c3.887.697 8.271 6.471 10.863 9.059 1.395 1.394 3.787 3.683 5.481 5.475l.099-.099c13.454-13.141 30.296-22.697 48.733-28.172-3.886-8.362-9.866-18.815-17.241-30.064-.099-.099-.199-.298-.199-.398-8.371-10.154-24.317-6.47-29-4.778-13.953 5.176-34.681 20.109-27.705 37.529 0 0 0 .1-.1 0-6.777-6.072-2.99-17.321 1.395-23.791 6.079-8.96 15.248-14.634 25.313-18.815 8.87-3.683 20.032-4.081 27.905 1.095 1.195-.299 11.062-7.366 13.154-10.253.2-.299.698-.1.698.298-.498 3.584-9.368 11.548-10.763 12.643 1.395 1.493 6.777 11.647 8.471 14.434 4.684-3.882 8.67-8.561 11.66-14.135 3.189-5.973 4.484-13.738 2.192-19.412 0 4.579-1.495 9.258-4.883 12.642-.797.797-1.694-.199-1.096-1.095 4.783-6.769 4.783-16.425-1.894-22.099-6.178-5.276-13.952-4.082-18.137.099-.499.498-1.296 1.493-2.093 2.29.199-3.086.498-7.367-2.193-10.652-2.093-2.488-6.577-3.583-11.56-2.09-2.491.896-4.983-.797-7.474-2.19-.997-.398-1.894-.697-2.691-.797-1.694-.099-3.289.299-4.883 1.792-1.794 1.693-2.492 4.679-3.289 6.869-1.096 2.986-2.691 6.072-5.182 8.063-7.176 5.973-18.038 6.471-26.808 9.955-8.87 5.475-10.664 11.846-5.382 19.014 2.292 2.488 5.382 4.28 8.172 6.172.199.099.1.497-.1.497-4.484.199-8.67-1.095-11.659-3.882-4.585-2.29-11.66 1.095-15.348 5.873-5.082 6.371-6.278 13.041-3.886 20.208 11.958 26.381 45.344 17.322 45.942 17.222.598-.099.996.597.299.896-10.165 3.484-20.729 3.783-31.193 1.593 10.464 8.063 22.523 9.158 36.275 3.384-.897-1.393-1.694-2.787-1.993-4.081-.498-.1-.199-.299.1-.299z" fill="#fff"/><g fill="#0d0802"><path d="M332.32 96.163h.996c.598 0 .997.099 1.296.299.399.298.997 1.095 1.694 2.389l.897 1.592h1.993L338 98.452c-.598-.895-1.096-1.592-1.494-1.99-.2-.2-.499-.399-.897-.498.897-.1 1.594-.398 2.092-.896a2.717 2.717 0 0 0 .798-1.892c0-.497-.2-.995-.499-1.493-.299-.497-.697-.796-1.295-.995-.498-.199-1.395-.299-2.591-.299h-3.488v10.054h1.594v-4.28h.1zm0-4.48h1.893c.798 0 1.396.1 1.695.199.299.1.498.299.697.498.2.199.299.498.299.796 0 .498-.199.797-.498 1.095-.299.299-.997.399-1.993.399h-1.993v-2.987h-.1z"/><path d="M329.73 103.53c1.495.797 3.089 1.195 4.684 1.195 1.594 0 3.189-.398 4.684-1.195a8.404 8.404 0 0 0 3.488-3.484c.797-1.493 1.196-3.086 1.196-4.678a8.98 8.98 0 0 0-1.296-4.679 8.398 8.398 0 0 0-3.488-3.484c-1.495-.797-3.089-1.195-4.584-1.195-1.595 0-3.09.398-4.684 1.195-1.495.796-2.691 1.991-3.488 3.484s-1.296 3.086-1.296 4.679a8.98 8.98 0 0 0 1.296 4.678 8.398 8.398 0 0 0 3.488 3.484zm-2.193-12.144c.698-1.295 1.695-2.19 2.99-2.887 1.296-.697 2.591-.996 3.887-.996 1.295 0 2.591.299 3.886.996 1.296.697 2.193 1.692 2.99 2.887.698 1.294 1.096 2.588 1.096 3.982 0 1.393-.299 2.687-.996 3.882a8.038 8.038 0 0 1-2.89 2.887 8.066 8.066 0 0 1-3.887.995c-1.395 0-2.691-.398-3.887-.995-1.295-.697-2.192-1.693-2.89-2.887-.697-1.195-.996-2.588-.996-3.882-.299-1.394 0-2.688.697-3.982z"/></g><path d="M343.98 165.15c-.299-2.986-.897-6.371-1.794-10.054a3.381 3.381 0 0 0-3.687-2.588 2080.93 2080.93 0 0 1-13.454-31.059c.199-.199.498-.498.598-.697.498-.796.697-1.891.398-2.787-1.096-3.783-2.092-7.367-2.989-10.95-.399-1.494-1.694-2.489-3.189-2.589-4.585-.199-11.162-.298-20.032-.298-.498 0-.996.099-1.494.398-.399.199-.897.498-1.196.697-.399.199-1.595 1.095-1.794 1.194-.498-1.393-1.794-2.389-3.289-2.389-3.388.1-7.973.199-13.055.498a96.643 96.643 0 0 0-5.182-3.683c-12.059-8.064-25.413-14.037-39.266-17.819-8.371-2.29-16.941-3.684-25.612-4.281a114.85 114.85 0 0 0-8.271-.299c-10.763 0-21.227 1.394-31.293 3.982-.099 0-.199.1-.398.1-2.492-5.077-5.88-11.249-9.368-17.122 7.275-5.973 13.254-14.136 15.646-23.095 2.093-8.064.299-16.127-5.083-20.109-.896-2.787-2.292-5.375-4.285-7.466-5.381-5.674-12.756-6.371-19.732-4.281-.1-.696-.199-1.393-.498-2.09-2.691-6.471-9.269-7.964-15.746-5.873-2.492.597-4.983.298-7.475-.996-.598-.298-1.295-.498-1.893-.697-1.694-.796-3.389-.995-4.983-.597-4.485.498-8.072 4.082-10.165 10.851-3.09 10.054-19.234 12.145-27.904 15.927-11.262 4.181-12.856 12.842-11.461 18.616a13.078 13.078 0 0 0 1.495 3.882c-7.076-.796-13.055 2.091-18.138 8.561-6.876 8.661-6.478 19.113-.498 29.267 14.45 22.498 32.588 25.883 54.513 16.824.398.298.697.597 1.096.896 1.096 1.294 2.192 2.488 2.99 3.583 1.395 1.792 3.687 4.679 5.281 6.869-3.089 3.285-5.979 6.769-8.57 10.453-.1.199-.199.298-.299.497a503.482 503.482 0 0 0-39.664 8.163h-.1c-19.134-5.873-33.285 19.81-48.134 19.512-7.275 0-21.527-13.638-13.753 3.384 5.182 11.448 13.653 23.493 27.406 23.493 12.258 0 24.316-12.941 28.801-8.163 0 .598 0 1.195.1 1.792 0 1.494.797 2.788 1.893 3.584.299 6.769-8.571 11.149-19.035 9.557-11.062-1.693-14.849 6.172-18.038 12.144-1.395 2.688 1.196 5.575 3.987 4.48 6.577-2.688 13.653-4.38 20.728-2.489 7.275 1.991 10.863 8.561 18.437 9.557.1 1.692.199 3.285.299 4.878-5.481.398-3.089 5.574-9.667 5.475-1.993 0-7.574-2.091-9.368-2.29-3.089-.199-3.189 2.091-.797 4.878 5.182 6.072 11.361 5.077 17.44 8.263-7.574 4.579-18.237 2.289-26.509 5.972-7.773 3.485-12.955 9.955-14.649 18.018-.598 2.788 2.591 4.978 4.983 3.385 2.591-1.792 5.182-5.276 8.769-5.873 8.87-1.493 15.148 4.878 23.42 6.172.598.099 1.096.099 1.595.099.099 1.792.199 3.484.299 5.276.099 1.294.697 2.489 1.793 3.285.798.598 1.794.996 2.791.996.299 0 .598 0 .797-.1 12.557-2.289 24.117-4.977 34.781-8.063.099 0 .299-.1.398-.1.2-.099.499-.099.698-.199.1 0 .1-.099.199-.099 3.787-.996 4.784-3.186 4.784-4.579 8.57 11.448 19.931 21.402 32.189 29.565 20.829 13.837 43.551 21.005 68.266 21.602h3.388c38.967 0 74.345-15.928 95.772-45.792 17.141-23.891 24.316-52.959 19.034-82.326-.199-1.294-.498-2.687-.797-3.982 2.591-.497 5.481-.995 8.571-1.592l.797-.1c.199 0 .399-.099.598-.199l6.876-6.57c.499-.398.798-1.294.698-2.29zM30.16 177.395c-11.162.099-20.231-12.543-24.317-21.602 19.533 11.448 36.774-16.127 51.723-16.525-.299.597-.399 1.294-.399 2.09.499 9.756.897 18.417 1.196 25.982-8.77-1.991-19.134 10.652-28.203 10.055zm9.567 72.271h-.199c-3.588 0-7.176.996-10.165 2.987 5.68-12.046 19.533-11.647 30.694-13.738l1.196-.299v.498c.2 5.674.399 11.249.598 16.625-6.677-.399-15.447-6.073-22.124-6.073zm252.43-142.45c.199 3.086.199 4.678.099 6.47-.099 1.493-.099 3.086-.099 5.674-.997.399-2.492 1.095-2.492 3.186 0 5.674-.199 11.448-.299 17.222-.199 6.968-.398 14.135-.299 21.004 0 1.792.1 2.688.598 3.086.2.199.598.398 1.097.398.498 0 .996-.099 1.793-.298.598-.1 1.396-.398 2.193-.697.1 0 .1 0 .199-.1.399-.099.797-.298 1.196-.398 2.591.896 4.186 2.588 5.182 5.276-.897 2.19-1.694 4.281-2.69 6.371h-.1a108.077 108.077 0 0 1-2.292 4.878c-2.691 5.376-6.179 11.149-11.262 18.715h-.099c-2.791-.697-4.884-1.991-6.279-3.982.897-5.774 1.495-9.357 2.292-15.629-.099 0-.299.1-.498.1-1.096.497-3.089 1.095-5.182 1.692-2.193.597-4.385 1.195-5.581 1.593l-2.591.796c-2.79.797-6.677 1.892-10.265 3.385v-.199c-.099-.199-.099-.399-.099-.697-1.196-4.778-1.695-8.263-2.093-11.249l-.499-3.186c.798-.796 2.093-1.592 1.196-5.076a396.38 396.38 0 0 0-1.993-10.652c-.797-4.38-1.594-8.561-2.99-16.724l-.996-6.272c-.199-1.294-.399-2.389-1.694-2.588-.798-5.574-.997-9.955-1.097-16.525a22.433 22.433 0 0 1 3.887-.995c6.876-1.493 16.145-2.887 16.145-2.887l.299-.1v.2s.099 3.285.199 4.579c.299 2.887.399 4.878.399 6.371.099 1.294.099 2.19.099 3.185-1.794.598-1.794 2.589-1.794 3.783.2 3.186.299 6.272.399 9.158.498 10.951.897 20.308 2.392 27.376.598 1.891 1.096 2.887 2.292 2.887.399 0 .797-.1 1.196-.199 2.591-.797 3.189-1.195 2.99-4.48-.1-3.384-.2-6.769-.299-10.353-.2-8.362-.499-17.122-.997-26.679-.1-1.493-.897-2.19-2.392-2.19-.498-3.484-.498-5.574-.498-8.66v-5.177c8.77-1.194 17.241-1.393 21.327-1.393zm-139.42 99.448c-2.292-16.525-4.285-34.543-6.079-53.557-.1-2.887-1.096-4.181-3.089-4.181h-.399l-.399-.099c-.298-2.191-.498-4.48-.797-7.068-.498-4.779-.996-10.154-1.594-16.127l1.794-.199a438.598 438.598 0 0 1 22.124-1.991c.897 5.873 1.594 12.742 2.391 20.805-1.793.598-2.391 1.991-2.092 4.58.498 5.773 1.096 11.348 1.793 16.425.698-1.294 1.396-2.489 2.093-3.683a107.307 107.307 0 0 1 6.877-11.349c1.694-2.588 2.292-4.579 1.694-5.774-.399-.796-1.395-1.194-2.99-1.194v-.1h-.299c-.1-.796-.199-1.792-.299-2.687-.299-1.494-.498-2.987-.697-4.58-.399-3.882-.897-8.063-1.296-12.642H172.071c8.172-.597 14.849-.996 21.626-1.593l.697 4.082c.499 4.28 1.097 9.158 1.495 14.334-1.794.598-2.491 1.693-2.192 3.485.996 9.954 2.192 19.013 3.388 27.773a490.797 490.797 0 0 1 2.093 16.923c.299 1.195 1.694 2.887 5.68 3.086a340.46 340.46 0 0 1 2.193 17.521s-18.038 10.85-23.42 13.837v-.398l-.299-1.095c-.897-6.67-1.794-13.638-2.392-20.408 1.595-1.095 2.392-3.185 2.093-5.773-.598-7.566-1.395-14.236-2.491-20.905a31.52 31.52 0 0 1-1.196 1.891l-1.595 2.787c-8.172 12.643-8.172 12.643-7.474 20.507l.1 1.095c.299 2.29 1.096 3.484 2.192 3.484.2 0 .399 0 .598-.099v.199c0 .199.1.298.1.498 1.295 5.873 2.192 13.14 2.89 22.099-6.079 3.285-13.554 6.869-23.121 11.149h-.199l-.1-.099c-1.495-8.163-2.392-16.425-2.491-24.588 2.292-1.195 3.089-3.186 2.491-6.371zm-7.673 4.778v.099a3.95 3.95 0 0 0-2.193 2.191l-.1-.1a4.675 4.675 0 0 0-1.494-.597c-.897-1.394-1.794-2.987-2.591-4.281-1.695-19.013-3.289-36.136-4.784-51.267 0-.398-.1-.796-.1-1.095.399-.597.598-1.394.698-2.19.1 0 .1 0 .199-.099.299-.1.498-.299.797-.498.299.597.698 1.194 1.296 1.692s1.395.796 2.192.896v.199a1129.82 1129.82 0 0 0 6.08 53.756v1.294zm88.496-16.425c-1.196.696-3.787 1.991-6.179 3.185-1.993.996-3.787 1.792-4.783 2.29-2.193.995-6.877 3.384-11.063 5.574l-.896.498v-.199c-.1-.398-.2-.796-.2-1.195-1.196-4.877-1.794-8.859-2.292-12.144l-.399-2.788c.798-.697 2.093-1.592 1.196-5.077-.797-4.778-1.694-9.158-2.591-13.737-1.295-6.67-2.79-14.136-4.385-24.091l-.697-4.479c-.399-2.29-.598-2.887-2.292-3.086-.798-5.376-1.396-11.548-1.894-18.417 0 0 17.64-2.09 21.825-2.687V119.659c.698 8.462.997 14.036 1.096 16.724-1.395.796-1.993 1.891-1.893 3.385.797 15.728 2.192 28.57 3.986 37.131.598 1.891 1.096 2.887 2.292 2.887.399 0 .798-.1 1.196-.199 2.591-.797 3.189-1.195 2.99-4.48-.199-6.57-.797-13.24-1.395-20.308-.399-5.276-.897-10.751-1.196-16.525-.1-1.692-.797-2.488-2.193-2.488-.697-5.077-.996-10.851-1.096-17.521 9.169-1.692 16.045-3.086 21.227-4.479v1.891c.2 4.878.299 9.756.299 14.932-2.192.896-3.288 2.389-3.288 4.779 0 5.674 0 11.448.099 17.321.1 5.873.1 11.846.2 17.918 0 1.494.199 2.39.697 2.887.299.299.797.498 1.395.498 1.196 0 2.99-.498 5.382-1.394.598.199 1.196.399 1.594.697 1.794.996 3.09 2.588 3.887 4.679-.996 3.783-2.192 7.765-3.787 11.846-3.089 8.063-7.375 17.122-12.756 26.878 0 .099-.1.099-.199.099-2.791-.696-4.884-1.99-6.279-3.981.897-5.774 1.794-11.647 2.591-17.919l-.199.1zm11.261-24.589c-.099-5.674-.199-11.049-.199-16.425.897 5.077 1.694 8.661 2.89 15.529v.1c-1.096.299-1.993.597-2.691.796zm-.398-60.027c-.399 0-.798 0-1.097.1-5.082 1.294-12.058 2.787-20.828 4.181-.797.099-1.395.497-1.894.995-.697-.398-1.395-.498-2.192-.398-4.983.796-12.158 1.593-21.526 2.489-.598.099-1.196.298-1.694.697-.499-.299-1.196-.399-1.794-.299-6.877.597-13.653.995-21.925 1.394-.299 0-.498.099-.797.099a7.176 7.176 0 0 0-2.691 1.493c-.1.1-.299.199-.399.199-.099 0-.299.1-.398.1-.698-.996-1.794-1.692-3.09-1.593-2.79.199-5.88.398-9.268.697 24.018-20.009 59.994-24.588 90.988-11.149-.498.398-.997.697-1.395.995zm-69.362 88.398c0 .498-.1.797-.1.996-.299.199-.498.597-.797.796-.2-.099-.399-.199-.598-.199 0-.199-.1-.398-.1-.597-.199-2.29-.398-3.982-.398-5.077 0-1.593.199-2.489 1.195-4.48.299 2.589.499 5.177.698 7.964.1.199.1.398.1.597zm-1.595 35.141c2.093-.697 3.986-2.489 4.883-4.48 1.296.498 2.791.498 3.987-.199 5.481-2.987 11.959-6.67 16.244-9.258 3.986-2.389 4.584-2.787 7.275-4.48a4.09 4.09 0 0 0 1.595-1.592c.697 0 1.295-.199 1.893-.498 4.385-2.29 9.567-4.978 11.76-5.973.897-.398 2.391-1.195 4.086-1.991-.499 3.186-.997 6.371-1.495 9.358-.2 1.194.099 2.389.797 3.384 2.093 2.887 5.282 4.778 8.77 5.674 1.993.498 3.687-.199 5.082-2.19 1.495-2.09 2.093-3.086 2.392-3.583 4.983-8.96 8.87-17.123 11.959-24.788.797.1 1.595.1 2.292-.199 4.485-1.792 9.568-3.086 12.557-4.081.997-.299 2.691-.797 4.585-1.294a186.096 186.096 0 0 1-1.396 8.461c-.199 1.195.1 2.389.798 3.385 2.092 2.887 5.281 4.778 8.769 5.674.299.1.499.1.798.1.797.199 1.694 0 2.392-.498a4.414 4.414 0 0 0 1.494-1.195c1.296-1.294 2.293-2.986 2.791-3.683 3.588-5.376 6.378-9.855 8.67-13.937-.797 12.941-5.182 25.783-13.653 37.032-25.413 34.045-77.335 41.511-116 16.724-.797-.498-1.495-.996-2.292-1.493a127.418 127.418 0 0 0 8.969-4.38zm17.042-151.31h.498c2.093-.199 4.086-.398 6.179-.497 1.096-.1 2.192-.1 3.288-.1 1.196 0 2.293-.099 3.488-.099 2.592 0 5.183.099 7.774.298 21.825 1.394 43.052 8.661 61.489 20.905.897.598 1.694 1.195 2.491 1.792-1.594.1-3.189.299-4.883.498-.797.099-1.495.498-1.993.995-.698-.398-1.495-.597-2.292-.497-4.186.696-9.368 1.493-16.245 2.886-34.481-17.321-76.138-12.045-102.15 12.743-2.491.199-5.083.497-7.873.696-3.787.399-5.68 2.489-6.378 3.285-.498-1.393-1.894-2.389-3.488-2.19-5.382.498-10.962 1.195-16.543 1.991 17.938-23.891 45.743-39.221 76.637-42.706zm-90.091 14.534c-.299-.099-.498.199-.498.498.299 1.394 1.096 2.787 1.993 4.082-13.753 5.773-25.911 4.678-36.276-3.385 10.464 2.19 21.028 1.891 31.193-1.593.698-.298.299-.896-.299-.896-.598.1-33.983 9.159-45.942-17.221-2.492-7.168-1.196-13.937 3.887-20.209 3.687-4.778 10.862-8.262 15.347-5.873 2.89 2.787 7.076 4.082 11.66 3.882.299 0 .299-.398.1-.497-2.791-1.892-5.88-3.684-8.172-6.172-5.282-7.267-3.488-13.638 5.381-19.014 8.77-3.484 19.633-3.882 26.808-9.955 2.492-2.09 4.086-5.176 5.182-8.063.897-2.19 1.495-5.276 3.289-6.869 1.595-1.493 3.189-1.792 4.883-1.792.798.1 1.794.399 2.691.797 2.591 1.294 4.983 2.986 7.474 2.19 5.083-1.493 9.468-.498 11.561 2.09 2.79 3.285 2.391 7.566 2.192 10.652.797-.796 1.595-1.792 2.093-2.29 4.186-4.181 12.059-5.375 18.138-.099 6.677 5.674 6.677 15.33 1.893 22.099-.598.797.399 1.792 1.096 1.095 3.389-3.384 4.983-7.963 4.884-12.642 2.292 5.674.996 13.439-2.193 19.412-2.99 5.574-6.976 10.253-11.66 14.135-1.694-2.687-7.075-12.941-8.471-14.434 1.296-1.095 10.165-9.059 10.763-12.643.1-.398-.398-.597-.697-.298-2.093 2.887-11.86 9.855-13.155 10.253-7.873-5.176-18.935-4.778-27.904-1.095-10.066 4.082-19.234 9.756-25.313 18.815-4.385 6.47-8.073 17.819-1.396 23.792h.1c-6.976-17.421 13.852-32.453 27.705-37.53 4.684-1.792 20.729-5.375 29 4.778.1.1.2.199.2.399 7.474 11.149 13.354 21.701 17.241 30.063-18.537 5.375-35.279 15.032-48.733 28.072l-.1.1c-1.794-1.792-4.185-4.082-5.481-5.475-2.193-2.688-6.577-8.362-10.464-9.159zm-51.324 100.64c-6.577-1.792-13.852-.796-20.131 1.493 9.169-14.235 18.835-3.882 29.698-9.656 3.289-1.692 5.481-5.575 6.079-9.656 0 .199.1.498.1.995V182.175c.498 8.661.897 17.023 1.395 24.986-6.378-1.194-10.763-7.565-17.141-9.357zm15.048 30.461c-2.292-.497-9.567-1.692-12.258-4.479 4.186 1.294 8.77 1.692 10.664.697 1.594-.797 2.292-3.883 4.385-4.181.199 3.086.398 6.072.498 8.959-.997-.498-2.192-.796-3.289-.996zm44.248-3.782c-.099 0 0 0-.298.099a4.824 4.824 0 0 0-1.994 1.394c-.697-.597-1.594-.896-2.491-.797h-.498c-.798 0-.897-.199-.997-.298-.199-.1-.498-.697-.698-2.091-1.594-23.393-2.79-41.212-3.787-53.457v-.099c0-.697.1-1.294.2-1.792 1.893-.597 3.787-1.195 5.68-1.692v.796c1.595 18.217 3.289 36.633 4.983 55.249 0 .398.1.796.1 1.095 0 1.095-.2 1.493-.2 1.593zm7.076 26.977c-.099-.498-.099-.995-.199-1.593-.797-6.968-1.595-14.832-2.492-23.891 2.891-1.095 3.987-3.484 3.588-7.466-1.794-18.616-3.388-37.032-4.983-55.249 0-1.991-.398-3.484-1.196-4.281-.598-.597-1.295-.896-2.292-.896-.299 0-.598 0-.996.1l-7.774 2.389c-3.189 1.095-4.783 4.082-4.783 9.059a8986.972 8986.972 0 0 1 3.787 53.557c.398 3.484 1.993 5.276 4.983 5.276h.797v.398c.897 8.262 1.495 16.724 1.993 25.583-10.763 3.286-22.622 6.073-35.578 8.462h-.099l-.1-.1a699.312 699.312 0 0 1-1.096-26.678c4.484-.896 6.477-3.684 6.378-8.561-.897-14.733-1.894-30.86-2.791-48.48.2-2.29-.299-4.081-1.295-5.276-.997-1.095-2.591-1.792-4.784-1.792-.498-9.457-.996-20.606-1.594-33.747 23.22-5.873 45.344-9.755 65.774-11.746a260.24 260.24 0 0 1 2.89 24.588c-2.392 1.095-3.289 3.285-2.89 6.869 1.594 16.127 3.289 34.443 5.082 54.851.1 2.588 1.196 3.782 3.488 3.782.499 0 .897-.099 1.495-.199v.498c.499 3.484.997 7.367 1.595 11.946v1.393c.1.697.199 1.295.299 1.991.498 2.887.897 5.874 1.395 9.159l-1.794.896h-.099c-6.977 2.986-15.846 6.172-26.609 9.656-.1-.398-.1-.398-.1-.498zm190.94 5.276c-20.33 28.371-54.513 45.294-91.486 45.294h-3.189c-23.519-.597-46.341-7.864-66.073-21.104-10.066-6.769-19.035-14.932-26.509-23.991 9.168-3.086 16.842-5.973 23.021-8.561.299-.1.498-.299.697-.398 1.595-.896 2.89-2.787 3.488-4.579.299.298.598.697 1.096.896.698.298 1.396.497 2.193.497.598 0 1.295-.099 1.893-.398 2.691-1.194 5.183-2.289 7.574-3.384 1.595 1.194 3.289 2.389 4.983 3.583 40.162 26.281 94.177 18.317 120.59-17.719 9.966-13.539 14.55-29.168 14.251-44.797 0 0 0-.099.1-.099 3.289-.797 6.079-1.394 8.371-1.892l.698-.099c.299-.1.498-.199.698-.398l.099-.1c.1-.099.2-.099.2-.199l3.587-3.385v.299l.1.896c0 .498.299.896.698 1.195.299.199.697.298.996.298h.299l.897-.199c2.292-.498 4.983-.995 7.973-1.593.099.498.199 1.095.299 1.593 4.883 27.873-1.196 55.647-17.54 78.344zm14.749-87.403v-.199c0-.199-.099-.398-.099-.597-.499-3.385-.897-6.57-1.396-9.656 1.396-.398 1.994-.896 1.994-1.792-.499-3.086-1.396-6.67-2.691-10.552-1.993.099-3.688.199-5.282.398-.997.1-1.993.299-2.89.498-.2 3.882-.299 7.864-.299 11.448.099.697.498.995 1.395.995h.598V160.474c.299 3.882.399 7.267.399 10.452a352.07 352.07 0 0 1-10.165 2.389c.597-1.393 1.096-2.688 1.694-4.181a3.563 3.563 0 0 0 0-2.488 12.092 12.092 0 0 0-7.475-7.467c-.199-.099-.398-.099-.598-.099 2.093-14.634 3.787-26.878 5.083-36.634.299-.895.399-1.592.1-2.09-.2-.498-.798-.896-1.595-1.195-.199-3.086-.299-6.968-.299-11.746 2.791-.1 5.282-.1 7.674-.1 2.292 0 4.484 0 6.378.1 2.392 0 4.385.099 6.079.199 1.096 3.683 2.093 7.366 3.189 11.149-.897.299-1.395.597-1.594.996-.299.497-.1 1.294.498 2.289 4.684 10.95 9.467 21.901 14.251 32.851.399.597.997.796 1.893.796.299 0 .598 0 .897-.099.997 3.683 1.595 6.968 1.894 9.755-8.272 1.792-14.75 2.987-19.633 3.982z" fill="#0d0802"/></g></svg>
